<svg width="900" height="640" viewBox="0 0 900 640" fill="none" xmlns="http://www.w3.org/2000/svg">
  <rect width="900" height="640" fill="#E9EFDA"/>
  <path d="M0 388C118 344 226 370 347 331C508 279 590 167 746 196C808 208 861 244 900 263V640H0V388Z" fill="#86A462"/>
  <path d="M0 491C154 437 275 470 427 424C599 371 708 304 900 349V640H0V491Z" fill="#C0C985"/>
  <path d="M0 561C133 531 270 548 402 519C570 482 681 431 900 457V640H0V561Z" fill="#F2E7B7"/>
  <path d="M178 456C210 327 302 244 438 211C451 358 365 448 178 456Z" fill="#F6F7D7"/>
  <path d="M548 452C586 310 683 224 830 193C837 356 738 449 548 452Z" fill="#F6F7D7"/>
  <circle cx="456" cy="118" r="58" fill="#F0C064"/>
</svg>
